<svg width="32" height="32" viewBox="0 0 32 32" fill="none" xmlns="http://www.w3.org/2000/svg">
<path d="M18.54 2.75599e-05H1.35374C1.17013 -0.00107691 0.9882 0.0310262 0.819177 0.094358C0.650155 0.15769 0.497621 0.250909 0.370978 0.368266C0.244334 0.485624 0.146266 0.624634 0.0828186 0.776726C0.0193714 0.928818 -0.00811113 1.09077 0.00206739 1.25259L1.61391 30.7474C1.63687 31.0834 1.80301 31.3993 2.07897 31.6316C2.35492 31.864 2.72025 31.9956 3.10158 32H20.2878C20.4714 32.0011 20.6533 31.969 20.8223 31.9056C20.9912 31.8423 21.1437 31.7491 21.2702 31.6317C21.3968 31.5143 21.4947 31.3753 21.558 31.2232C21.6214 31.0711 21.6487 30.9092 21.6383 30.7474L20.0277 1.25259C20.0047 0.916588 19.8386 0.600694 19.5626 0.368351C19.2867 0.136009 18.9213 0.00442519 18.54 2.75599e-05Z" fill="#111516"/>
<path d="M19.175 2.79956e-05H1.98401C1.80044 -0.00108536 1.61856 0.0310202 1.4496 0.0943633C1.28064 0.157706 1.12817 0.250943 1.00162 0.368318C0.875072 0.485692 0.777117 0.624714 0.713805 0.776803C0.650493 0.928893 0.623167 1.09082 0.633514 1.25259L2.24417 30.7474C2.26713 31.0834 2.43327 31.3993 2.70923 31.6316C2.98518 31.864 3.35051 31.9956 3.73184 32H20.9181C21.1017 32.0011 21.2835 31.969 21.4525 31.9056C21.6215 31.8423 21.7739 31.7491 21.9005 31.6317C22.027 31.5143 22.125 31.3753 22.1883 31.2232C22.2516 31.0711 22.2789 30.9092 22.2686 30.7474L20.6579 1.25259C20.635 0.917298 20.4696 0.601993 20.1946 0.369755C19.9197 0.137517 19.5555 0.00546944 19.175 2.79956e-05Z" fill="#111516"/>
<path d="M3.68351 31.1649C3.55692 31.1621 3.43605 31.1178 3.34445 31.0406C3.25285 30.9634 3.19709 30.8589 3.18802 30.7474L1.57973 1.2526C1.57685 1.19876 1.58636 1.14497 1.6077 1.09448C1.62904 1.04398 1.66175 0.997826 1.70386 0.958802C1.74597 0.919778 1.79661 0.888694 1.85271 0.867428C1.90882 0.846163 1.96923 0.835157 2.03028 0.835075H19.2165C19.3433 0.83743 19.4645 0.881596 19.5562 0.958874C19.6479 1.03615 19.7035 1.14094 19.712 1.2526L21.3227 30.7474C21.3256 30.8011 21.3161 30.8548 21.2948 30.9053C21.2736 30.9557 21.241 31.0018 21.199 31.0408C21.157 31.0798 21.1065 31.1109 21.0505 31.1323C20.9946 31.1536 20.9343 31.1647 20.8733 31.1649H3.68351Z" fill="#198D99"/>
<path opacity="0.1" d="M3.67506 30.9562C3.61187 30.9543 3.55165 30.932 3.50586 30.8935C3.46008 30.855 3.43191 30.803 3.42673 30.7474L1.81607 1.2526C1.81496 1.2258 1.81993 1.19907 1.83068 1.17399C1.84144 1.1489 1.85775 1.12596 1.87868 1.10652C1.89961 1.08707 1.92473 1.07151 1.95256 1.06075C1.98039 1.04999 2.01037 1.04424 2.04076 1.04384H19.227C19.2903 1.04547 19.3507 1.06769 19.3965 1.10623C19.4423 1.14476 19.4704 1.19689 19.4754 1.2526L21.086 30.7474C21.0871 30.7742 21.0822 30.8009 21.0714 30.826C21.0606 30.8511 21.0443 30.874 21.0234 30.8935C21.0025 30.9129 20.9774 30.9285 20.9495 30.9392C20.9217 30.95 20.8917 30.9558 20.8613 30.9562H3.67506Z" fill="#111516"/>
<g opacity="0.3">
<path opacity="0.3" d="M8.86194 29.261H5.45733C5.36387 29.2601 5.27429 29.2279 5.20668 29.171C5.13908 29.114 5.09848 29.0365 5.09309 28.9541L4.84476 24.3917C4.84166 24.3513 4.84803 24.3109 4.86349 24.2728C4.87895 24.2348 4.90315 24.2 4.93457 24.1706C4.966 24.1412 5.00397 24.1178 5.0461 24.102C5.08824 24.0861 5.13363 24.0781 5.17942 24.0785H8.58995C8.68318 24.0792 8.77262 24.1112 8.84006 24.168C8.90751 24.2248 8.94789 24.3022 8.953 24.3844L9.1978 28.9479C9.20072 28.9883 9.19419 29.0287 9.17859 29.0668C9.163 29.1049 9.13869 29.1397 9.10717 29.169C9.07565 29.1984 9.03761 29.2218 8.99542 29.2376C8.95322 29.2534 8.90779 29.2614 8.86194 29.261ZM5.17469 24.185C5.14519 24.1849 5.11595 24.19 5.08873 24.2C5.06151 24.21 5.03685 24.2248 5.01623 24.2434C4.99613 24.2626 4.98056 24.2852 4.97041 24.3097C4.96026 24.3343 4.95573 24.3603 4.9571 24.3864L5.20662 28.9479C5.20992 29.0037 5.23718 29.0564 5.28286 29.0952C5.32854 29.134 5.38923 29.1559 5.4526 29.1566H8.86194C8.89159 29.1568 8.92097 29.1516 8.94825 29.1414C8.97553 29.1312 9.00014 29.1161 9.02054 29.0971C9.04094 29.0781 9.05671 29.0556 9.06685 29.031C9.077 29.0064 9.08132 28.9803 9.07954 28.9541L8.83002 24.3917C8.82701 24.3359 8.80001 24.2832 8.75451 24.2444C8.70902 24.2057 8.64847 24.1836 8.58522 24.1829L5.17469 24.185Z" fill="#FEFEFE"/>
<path opacity="0.3" d="M8.54037 25.2445H5.33916C5.32348 25.2445 5.30844 25.239 5.29735 25.2292C5.28626 25.2194 5.28003 25.2061 5.28003 25.1923C5.28003 25.1784 5.28626 25.1652 5.29735 25.1554C5.30844 25.1456 5.32348 25.1401 5.33916 25.1401H8.54392C8.5596 25.1401 8.57464 25.1456 8.58573 25.1554C8.59682 25.1652 8.60305 25.1784 8.60305 25.1923C8.60305 25.2061 8.59682 25.2194 8.58573 25.2292C8.57464 25.239 8.5596 25.2445 8.54392 25.2445H8.54037Z" fill="#FEFEFE"/>
<path opacity="0.3" d="M8.57342 25.8342H5.36748C5.35189 25.8339 5.33703 25.8284 5.326 25.8186C5.31498 25.8089 5.30865 25.7958 5.30835 25.782C5.30835 25.7682 5.31458 25.7549 5.32567 25.7451C5.33676 25.7353 5.3518 25.7298 5.36748 25.7298H8.57342C8.5891 25.7298 8.60414 25.7353 8.61523 25.7451C8.62632 25.7549 8.63255 25.7682 8.63255 25.782C8.63224 25.7958 8.62592 25.8089 8.61489 25.8186C8.60387 25.8284 8.58901 25.8339 8.57342 25.8342Z" fill="#FEFEFE"/>
<path opacity="0.3" d="M8.60528 26.424H5.39934C5.38375 26.4237 5.36889 26.4181 5.35786 26.4084C5.34684 26.3986 5.34051 26.3855 5.34021 26.3718C5.34021 26.3579 5.34644 26.3447 5.35753 26.3349C5.36862 26.3251 5.38366 26.3196 5.39934 26.3196H8.60528C8.62096 26.3196 8.636 26.3251 8.64709 26.3349C8.65818 26.3447 8.66441 26.3579 8.66441 26.3718C8.66441 26.3856 8.65818 26.3989 8.64709 26.4087C8.636 26.4185 8.62096 26.424 8.60528 26.424Z" fill="#FEFEFE"/>
<path opacity="0.3" d="M8.6373 27.0137H5.43254C5.41686 27.0137 5.40182 27.0082 5.39073 26.9984C5.37964 26.9886 5.37341 26.9754 5.37341 26.9615C5.37341 26.9477 5.37964 26.9344 5.39073 26.9246C5.40182 26.9148 5.41686 26.9093 5.43254 26.9093H8.6373C8.65299 26.9093 8.66803 26.9148 8.67912 26.9246C8.6902 26.9344 8.69643 26.9477 8.69643 26.9615C8.69643 26.9754 8.6902 26.9886 8.67912 26.9984C8.66803 27.0082 8.65299 27.0137 8.6373 27.0137Z" fill="#FEFEFE"/>
<path opacity="0.3" d="M8.66916 27.6034H5.4644C5.44872 27.6034 5.43368 27.598 5.42259 27.5882C5.4115 27.5784 5.40527 27.5651 5.40527 27.5513C5.40527 27.5374 5.4115 27.5241 5.42259 27.5144C5.43368 27.5046 5.44872 27.4991 5.4644 27.4991H8.66916C8.68484 27.4991 8.69988 27.5046 8.71097 27.5144C8.72206 27.5241 8.72829 27.5374 8.72829 27.5513C8.72829 27.5651 8.72206 27.5784 8.71097 27.5882C8.69988 27.598 8.68484 27.6034 8.66916 27.6034Z" fill="#FEFEFE"/>
<path opacity="0.3" d="M8.04482 28.1932H5.49638C5.4807 28.1932 5.46566 28.1877 5.45457 28.1779C5.44348 28.1681 5.43726 28.1549 5.43726 28.141C5.43726 28.1272 5.44348 28.1139 5.45457 28.1041C5.46566 28.0943 5.4807 28.0888 5.49638 28.0888H8.04482C8.0605 28.0888 8.07554 28.0943 8.08663 28.1041C8.09772 28.1139 8.10395 28.1272 8.10395 28.141C8.10365 28.1548 8.09732 28.1679 8.0863 28.1776C8.07527 28.1874 8.06041 28.1929 8.04482 28.1932Z" fill="#FEFEFE"/>
</g>
<g opacity="0.3">
<path opacity="0.3" d="M11.0081 12.5215L8.6702 12.8514C8.57997 12.655 8.46067 12.47 8.31543 12.3013C8.17548 12.1716 8.00999 12.0655 7.82703 11.9881L7.91454 13.606C9.21458 13.908 10.0893 14.2267 10.5387 14.5622C10.8251 14.7729 11.0576 15.0349 11.2207 15.3309C11.3838 15.627 11.4738 15.9502 11.4847 16.2792C11.516 16.6643 11.4358 17.0501 11.2517 17.4003C11.0766 17.7269 10.8247 18.017 10.5126 18.251C10.222 18.4707 9.88586 18.6387 9.52283 18.7457C9.09671 18.8588 8.65507 18.9199 8.21018 18.9273L8.22556 19.2123C8.22913 19.265 8.22037 19.3179 8.19982 19.3675C8.17927 19.4171 8.14737 19.4625 8.10611 19.5008C8.06485 19.5391 8.0151 19.5694 7.95997 19.59C7.90484 19.6106 7.8455 19.621 7.78564 19.6204C7.66128 19.6193 7.54204 19.5765 7.45204 19.5008C7.36203 19.425 7.30797 19.3219 7.30079 19.2123L7.28541 18.9273C6.76639 18.8979 6.25395 18.8088 5.76108 18.6622C5.38353 18.5418 5.03435 18.361 4.73107 18.1288C4.45424 17.9202 4.21986 17.6713 4.03808 17.393C3.85579 17.0936 3.72317 16.7726 3.64429 16.44L6.18799 16.178C6.28417 16.5461 6.40243 16.8122 6.54276 16.9765C6.71907 17.1673 6.94563 17.3171 7.20263 17.4128L7.09502 15.4379C6.46507 15.2995 5.84827 15.118 5.25021 14.8951C4.86332 14.7248 4.53079 14.4719 4.28287 14.1592C3.9931 13.7979 3.83285 13.3681 3.82285 12.9255C3.79537 12.6201 3.84354 12.313 3.96403 12.0257C4.08451 11.7384 4.27443 11.4777 4.52057 11.2616C5.02198 10.8156 5.79065 10.5686 6.82658 10.5205L6.8183 10.3755C6.81473 10.3227 6.82349 10.2699 6.84404 10.2203C6.86459 10.1706 6.89648 10.1253 6.93774 10.087C6.97901 10.0487 7.02875 10.0183 7.08388 9.99774C7.13901 9.97715 7.19835 9.9668 7.25821 9.96732C7.38258 9.96846 7.50181 10.0112 7.59182 10.087C7.68182 10.1628 7.73588 10.2659 7.74307 10.3755L7.75134 10.5205C8.6974 10.5727 9.43098 10.7704 9.9521 11.1134C10.4763 11.4623 10.849 11.9593 11.0081 12.5215ZM6.90463 11.9631C6.69378 12.0108 6.50341 12.112 6.3571 12.2543C6.25755 12.3722 6.20929 12.5178 6.2211 12.6645C6.22736 12.8219 6.2922 12.973 6.40558 13.0946C6.56346 13.2408 6.76331 13.3465 6.98386 13.4004L6.90463 11.9631ZM8.13095 17.466C8.48572 17.3964 8.74194 17.2795 8.89962 17.1153C8.97531 17.0414 9.03371 16.9551 9.07146 16.8612C9.10921 16.7673 9.12556 16.6678 9.11958 16.5683C9.10753 16.3871 9.02383 16.2153 8.88306 16.083C8.73406 15.9358 8.45024 15.798 8.03398 15.6717L8.13095 17.466Z" fill="#FEFEFE"/>
</g>
<path opacity="0.2" d="M17.1883 3.85062H5.48083L6.62201 24.7382C6.67771 25.5939 7.09942 26.399 7.8019 26.9908C8.50439 27.5826 9.43523 27.9168 10.4062 27.926H22.1137L20.9737 7.03841C20.9185 6.18235 20.4968 5.37679 19.7939 4.7849C19.0911 4.19301 18.1596 3.85904 17.1883 3.85062Z" fill="#111516"/>
<path d="M20.056 3.85062H5.48438C6.45547 3.85955 7.38646 4.19372 8.089 4.78554C8.79155 5.37735 9.21318 6.18261 9.26859 7.03841L10.1993 24.042C10.255 24.8977 10.6767 25.7028 11.3792 26.2946C12.0816 26.8864 13.0125 27.2206 13.9835 27.2298H21.3308C21.7986 27.2341 22.2624 27.1534 22.6933 26.9927C23.1243 26.8321 23.5132 26.5948 23.8358 26.2959C24.1585 25.9969 24.408 25.6425 24.5688 25.2547C24.7297 24.867 24.7985 24.4542 24.7709 24.042L23.8414 7.03841C23.7862 6.18235 23.3645 5.37679 22.6617 4.7849C21.9588 4.19301 21.0274 3.85904 20.056 3.85062Z" fill="#FEFEFE"/>
<path d="M17.4225 24.042C17.4503 24.454 17.3817 24.8666 17.2211 25.2542C17.0605 25.6418 16.8114 25.9961 16.489 26.295C16.1667 26.594 15.7782 26.8313 15.3476 26.9921C14.917 27.1529 14.4535 27.2338 13.986 27.2298H28.5564C29.024 27.2338 29.4875 27.1529 29.9182 26.9921C30.3488 26.8313 30.7374 26.5941 31.0598 26.2951C31.3822 25.9961 31.6315 25.6418 31.7923 25.2542C31.953 24.8666 32.0217 24.454 31.9941 24.042H17.4225Z" fill="#E6E6E6"/>
<path d="M22.1078 14.4045H11.81C11.7379 14.4039 11.6687 14.379 11.6164 14.335C11.5642 14.2911 11.5328 14.2312 11.5286 14.1676C11.5267 14.137 11.5318 14.1064 11.5438 14.0776C11.5558 14.0489 11.5743 14.0226 11.5983 14.0004C11.6222 13.9782 11.651 13.9605 11.683 13.9485C11.7149 13.9366 11.7493 13.9305 11.784 13.9307H22.0818C22.1548 13.9303 22.2252 13.9546 22.2785 13.9987C22.3317 14.0428 22.3638 14.1033 22.368 14.1676C22.37 14.1986 22.3647 14.2295 22.3524 14.2586C22.3401 14.2876 22.3212 14.3141 22.2967 14.3364C22.2723 14.3586 22.2429 14.3762 22.2104 14.3879C22.1779 14.3997 22.143 14.4053 22.1078 14.4045Z" fill="#198D99"/>
<path d="M22.1882 15.8836H11.8904C11.8182 15.8829 11.749 15.8581 11.6967 15.8141C11.6445 15.7701 11.6131 15.7103 11.6089 15.6467C11.607 15.6161 11.6122 15.5855 11.6241 15.5567C11.6361 15.5279 11.6546 15.5016 11.6786 15.4794C11.7025 15.4572 11.7313 15.4396 11.7633 15.4276C11.7952 15.4156 11.8296 15.4095 11.8644 15.4097H22.1633C22.2353 15.4107 22.3042 15.4356 22.3562 15.4796C22.4082 15.5235 22.4394 15.5832 22.4436 15.6467C22.4455 15.6773 22.4404 15.7079 22.4284 15.7366C22.4164 15.7654 22.3979 15.7917 22.3739 15.8139C22.35 15.8361 22.3212 15.8537 22.2892 15.8657C22.2573 15.8777 22.2229 15.8838 22.1882 15.8836Z" fill="#198D99"/>
<path d="M22.2698 17.3616H11.9708C11.8986 17.361 11.8294 17.3361 11.7772 17.2921C11.7249 17.2482 11.6936 17.1883 11.6894 17.1247C11.6874 17.0941 11.6926 17.0635 11.7046 17.0347C11.7166 17.006 11.7351 16.9797 11.759 16.9575C11.783 16.9353 11.8118 16.9176 11.8437 16.9056C11.8757 16.8936 11.9101 16.8876 11.9448 16.8878H22.2497C22.3219 16.8884 22.3911 16.9133 22.4433 16.9573C22.4956 17.0012 22.527 17.0611 22.5311 17.1247C22.5331 17.1557 22.5278 17.1868 22.5154 17.2159C22.5031 17.245 22.484 17.2716 22.4595 17.2939C22.4349 17.3161 22.4054 17.3337 22.3727 17.3453C22.3401 17.357 22.305 17.3626 22.2698 17.3616Z" fill="#198D99"/>
<path d="M22.3502 18.8428H12.0524C11.9803 18.8419 11.9112 18.817 11.859 18.773C11.8068 18.7291 11.7754 18.6694 11.7709 18.6059C11.769 18.5753 11.7741 18.5446 11.7861 18.5159C11.7981 18.4871 11.8166 18.4608 11.8406 18.4386C11.8645 18.4164 11.8933 18.3988 11.9253 18.3868C11.9572 18.3748 11.9916 18.3687 12.0263 18.3689H22.3241C22.3963 18.3696 22.4655 18.3944 22.5178 18.4384C22.57 18.4824 22.6014 18.5422 22.6056 18.6059C22.6075 18.6365 22.6024 18.6671 22.5904 18.6958C22.5784 18.7246 22.5599 18.7509 22.5359 18.7731C22.512 18.7953 22.4832 18.8129 22.4512 18.8249C22.4193 18.8369 22.3849 18.843 22.3502 18.8428Z" fill="#198D99"/>
<path d="M18.3366 20.3219H12.1328C12.0606 20.3212 11.9914 20.2963 11.9392 20.2524C11.8869 20.2084 11.8555 20.1485 11.8513 20.0849C11.8494 20.0543 11.8546 20.0237 11.8666 19.995C11.8786 19.9662 11.8971 19.9399 11.921 19.9177C11.9449 19.8955 11.9738 19.8779 12.0057 19.8659C12.0377 19.8539 12.0721 19.8478 12.1068 19.848H18.3105C18.3827 19.8487 18.4519 19.8735 18.5042 19.9175C18.5564 19.9615 18.5878 20.0213 18.592 20.0849C18.5939 20.1155 18.5888 20.1461 18.5768 20.1749C18.5648 20.2037 18.5463 20.23 18.5223 20.2522C18.4984 20.2744 18.4696 20.292 18.4376 20.304C18.4057 20.316 18.3713 20.3221 18.3366 20.3219Z" fill="#198D99"/>
<path d="M19.0521 11.3387C20.2707 10.2368 20.1966 8.42861 18.8866 7.29986C17.5766 6.17111 15.5268 6.14928 14.3082 7.2511C13.0897 8.35291 13.1638 10.1611 14.4737 11.2899C15.7837 12.4186 17.8335 12.4405 19.0521 11.3387Z" fill="#198D99"/>
<path d="M19.3499 9.29303C19.3723 9.68092 19.2823 10.0675 19.0886 10.4162C18.8785 10.7901 18.5533 11.1042 18.1503 11.3224C17.7472 11.5406 17.2826 11.6541 16.8098 11.6499C16.3206 11.6467 15.8409 11.5312 15.4175 11.315C14.9942 11.0987 14.6418 10.7889 14.395 10.4162C14.1647 10.0752 14.0327 9.68953 14.0106 9.29303C13.9902 8.98842 14.0409 8.68334 14.1597 8.39677C14.2785 8.1102 14.4628 7.84825 14.7011 7.62721C14.9395 7.40617 15.2268 7.23075 15.5452 7.11186C15.8636 6.99297 16.2063 6.93315 16.552 6.93612C17.2695 6.94399 17.9571 7.19148 18.4762 7.62879C18.9953 8.06609 19.3075 8.66074 19.3499 9.29303Z" fill="#FEFEFE"/>
<path opacity="0.4" d="M19.0888 10.4162C18.8787 10.7901 18.5535 11.1042 18.1504 11.3224C17.7474 11.5406 17.2828 11.6541 16.8099 11.6499C16.3208 11.6467 15.841 11.5312 15.4177 11.3149C14.9943 11.0986 14.642 10.7889 14.3951 10.4162C15.0757 10.004 15.8829 9.78541 16.7082 9.78988C17.5536 9.79127 18.3805 10.0088 19.0888 10.4162Z" fill="#198D99"/>
<path opacity="0.4" d="M17.5069 9.23641C17.9549 8.83133 17.9279 8.1667 17.4465 7.75193C16.9652 7.33715 16.2117 7.3293 15.7637 7.73439C15.3157 8.13947 15.3427 8.8041 15.8241 9.21887C16.3055 9.63364 17.0589 9.6415 17.5069 9.23641Z" fill="#198D99"/>
</svg>
