<svg width="32" height="32" viewBox="0 0 32 32" fill="none" xmlns="http://www.w3.org/2000/svg">
<path d="M1.03976 16.7826H23.3635C23.6515 16.7797 23.9275 16.664 24.1347 16.4592C24.3419 16.2544 24.4647 15.976 24.4778 15.6814L24.9777 1.10125C24.9832 0.958395 24.9603 0.815887 24.9106 0.682303C24.8609 0.548718 24.7853 0.426819 24.6883 0.323942C24.5914 0.221065 24.4751 0.139335 24.3465 0.0836704C24.218 0.0280061 24.0797 -0.000443436 23.9401 3.64899e-05H1.61502C1.32694 0.00256861 1.05078 0.118194 0.843472 0.323079C0.636164 0.527963 0.513506 0.806492 0.500781 1.10125L0.00078504 15.68C-0.00465442 15.823 0.0182174 15.9657 0.0680237 16.0995C0.11783 16.2332 0.193542 16.3553 0.290603 16.4583C0.387665 16.5613 0.50407 16.6431 0.632815 16.6988C0.76156 16.7546 0.899983 16.7831 1.03976 16.7826Z" fill="#198D99"/>
<path opacity="0.4" d="M1.03976 16.7826H23.3635C23.6515 16.7797 23.9275 16.664 24.1347 16.4592C24.3419 16.2544 24.4647 15.976 24.4778 15.6814L24.9777 1.10125C24.9832 0.958395 24.9603 0.815887 24.9106 0.682303C24.8609 0.548718 24.7853 0.426819 24.6883 0.323942C24.5914 0.221065 24.4751 0.139335 24.3465 0.0836704C24.218 0.0280061 24.0797 -0.000443436 23.9401 3.64899e-05H1.61502C1.32694 0.00256861 1.05078 0.118194 0.843472 0.323079C0.636164 0.527963 0.513506 0.806492 0.500781 1.10125L0.00078504 15.68C-0.00465442 15.823 0.0182174 15.9657 0.0680237 16.0995C0.11783 16.2332 0.193542 16.3553 0.290603 16.4583C0.387665 16.5613 0.50407 16.6431 0.632815 16.6988C0.76156 16.7546 0.899983 16.7831 1.03976 16.7826Z" fill="#111516"/>
<path d="M1.25203 16.7826H23.5771C23.865 16.7794 24.1408 16.6635 24.348 16.4588C24.5551 16.254 24.678 15.9759 24.6914 15.6813L25.1914 1.10123C25.1968 0.958254 25.1739 0.815631 25.1241 0.681954C25.0743 0.548277 24.9986 0.426314 24.9015 0.323417C24.8044 0.22052 24.688 0.138819 24.5592 0.0832379C24.4305 0.0276566 24.2921 -0.00065468 24.1524 1.14886e-05H1.82729C1.53944 0.00289396 1.26362 0.118675 1.0566 0.323524C0.849579 0.528373 0.727109 0.806703 0.714398 1.10123L0.214401 15.68C0.208776 15.8229 0.231474 15.9656 0.281129 16.0993C0.330784 16.2331 0.406368 16.3552 0.503324 16.4582C0.600279 16.5612 0.7166 16.6431 0.845275 16.6988C0.973949 16.7546 1.11231 16.783 1.25203 16.7826Z" fill="#198D99"/>
<path opacity="0.9" d="M23.3634 15.8644C23.4771 15.8631 23.5859 15.8174 23.6677 15.7365C23.7494 15.6556 23.7978 15.5457 23.8029 15.4294L24.2828 1.35039C24.2857 1.29433 24.2774 1.23826 24.2585 1.18558C24.2395 1.13291 24.2103 1.08475 24.1726 1.04404C24.1348 1.00333 24.0894 0.970925 24.039 0.948808C23.9886 0.926692 23.9344 0.915326 23.8796 0.915406H2.04102C1.92747 0.917023 1.81879 0.962915 1.73713 1.04373C1.65547 1.12455 1.60697 1.23422 1.6015 1.35039L1.11898 15.4294C1.11606 15.4855 1.12432 15.5416 1.14328 15.5942C1.16223 15.6469 1.19146 15.6951 1.2292 15.7358C1.26694 15.7765 1.31239 15.8089 1.36276 15.831C1.41314 15.8531 1.46739 15.8645 1.5222 15.8644H23.3634Z" fill="#FEFEFE"/>
<path opacity="0.3" d="M16.7749 12.0542C17.4808 11.1435 17.8923 10.0302 17.9523 8.86894C18.0105 7.74072 17.7044 6.62425 17.0813 5.69193V5.67541C17.0707 5.65943 17.0591 5.64425 17.0464 5.62999C16.584 4.96285 15.9712 4.41988 15.2601 4.04722C14.549 3.67456 13.7605 3.48324 12.9617 3.4895C12.1359 3.49594 11.322 3.69137 10.5794 4.06148C9.83691 4.43159 9.18454 4.96703 8.67009 5.62861C8.65934 5.641 8.64858 5.65201 8.63917 5.6644C8.63721 5.66912 8.63496 5.67372 8.63245 5.67817C7.92567 6.58908 7.51365 7.70294 7.4537 8.86481C7.39307 9.99695 7.69977 11.1178 8.326 12.0528C8.3255 12.057 8.3255 12.0611 8.326 12.0652L8.3381 12.0804C8.79978 12.7536 9.41416 13.302 10.1285 13.6785C10.8427 14.0549 11.6356 14.2481 12.4389 14.2415C13.2633 14.2349 14.0759 14.0399 14.8175 13.6708C15.559 13.3017 16.2107 12.7678 16.7251 12.1079C16.7375 12.0943 16.7492 12.0801 16.7601 12.0652C16.7652 12.0619 16.7702 12.0582 16.7749 12.0542ZM12.4738 13.6056C11.7225 13.6056 11.0894 12.7067 10.7682 11.3811C11.3678 11.258 11.9779 11.1967 12.5894 11.198C13.1952 11.1966 13.7996 11.2584 14.3932 11.3825C13.9442 12.7122 13.2252 13.6056 12.4752 13.6056H12.4738ZM12.6203 10.5566C11.9568 10.5552 11.2948 10.6225 10.6445 10.7575C10.5648 10.2391 10.5297 9.71443 10.5397 9.18967H14.834C14.7919 9.71869 14.7065 10.2432 14.5786 10.7575C13.9348 10.622 13.279 10.5546 12.6217 10.5566H12.6203ZM8.07332 9.18967H9.9147C9.90162 9.76599 9.93941 10.3423 10.0276 10.9117C9.56923 11.0438 9.12691 11.2285 8.70907 11.4623C8.30357 10.7762 8.08454 9.99159 8.07466 9.18967H8.07332ZM8.96041 6.27695C9.35906 6.51244 9.78423 6.69734 10.2265 6.82756C10.0848 7.3926 9.99171 7.96928 9.9483 8.55097H8.10692C8.2011 7.73175 8.49456 6.94986 8.96041 6.27695ZM12.9322 4.13371C13.6835 4.13371 14.3152 5.03258 14.6378 6.35817C14.0376 6.4805 13.4271 6.54182 12.8152 6.54125C12.2095 6.54233 11.6052 6.48099 11.0115 6.35817C11.4604 5.03258 12.1862 4.13371 12.9308 4.13371H12.9322ZM12.7856 7.18133C13.4492 7.1826 14.1111 7.11527 14.7614 6.98036C14.8406 7.49935 14.8757 8.02439 14.8663 8.54959H10.5733C10.6147 8.02002 10.7001 7.49504 10.8287 6.98036C11.4721 7.11596 12.1274 7.1833 12.7843 7.18133H12.7856ZM17.3327 8.54959H15.4913C15.5037 7.97283 15.4659 7.39608 15.3784 6.82619C15.8366 6.69368 16.2789 6.50899 16.6969 6.27558C17.102 6.96233 17.321 7.7473 17.3313 8.54959H17.3327ZM15.4604 9.18967H17.3017C17.2063 10.0079 16.9124 10.7887 16.4469 11.4609C16.0481 11.2258 15.623 11.0409 15.1808 10.9103C15.323 10.3463 15.4161 9.77052 15.459 9.18967H15.4604ZM16.3407 5.76351C15.9938 5.94747 15.6295 6.0946 15.2534 6.20262C15.1145 5.56158 14.8562 4.95399 14.4926 4.41315C15.2142 4.68757 15.8516 5.15363 16.3394 5.76351H16.3407ZM11.3435 4.4159C10.932 4.95143 10.6162 5.55724 10.4107 6.20537C10.0482 6.09769 9.69809 5.95048 9.36632 5.76626C9.90874 5.1593 10.5867 4.69596 11.3421 4.4159H11.3435ZM9.06793 11.9758C9.41466 11.7921 9.77849 11.6446 10.1539 11.5353C10.2931 12.1762 10.5514 12.7837 10.9147 13.3247C10.1928 13.0509 9.55494 12.5853 9.06659 11.9758H9.06793ZM14.0679 13.322C14.4803 12.7871 14.7961 12.1811 15.0007 11.5325C15.3633 11.6404 15.7134 11.7881 16.045 11.973C15.5024 12.58 14.8239 13.043 14.0679 13.322Z" fill="#198D99"/>
<path opacity="0.6" d="M6.06658 0.915405L4.12573 15.8644H6.70905L8.64989 0.915405H6.06658Z" fill="#FEFEFE"/>
<path opacity="0.6" d="M9.53167 0.915405L7.59082 15.8644H8.64995L10.5921 0.915405H9.53167Z" fill="#FEFEFE"/>
<path opacity="0.3" d="M12.8085 0.481791C12.8076 0.503811 12.8111 0.525791 12.8187 0.546392C12.8263 0.566994 12.838 0.585786 12.853 0.601626C12.8679 0.617465 12.8859 0.630019 12.9057 0.638526C12.9256 0.647033 12.9469 0.651314 12.9684 0.651108C13.0127 0.650788 13.0551 0.633013 13.0869 0.601481C13.1187 0.569948 13.1374 0.527081 13.1391 0.481791C13.14 0.459772 13.1366 0.437793 13.1289 0.417192C13.1213 0.396591 13.1096 0.377798 13.0947 0.361959C13.0797 0.346119 13.0617 0.333565 13.0419 0.325058C13.022 0.316551 13.0007 0.31227 12.9792 0.312477C12.9349 0.312796 12.8925 0.330569 12.8607 0.362102C12.8289 0.393634 12.8102 0.436501 12.8085 0.481791Z" fill="#FEFEFE"/>
<path d="M26.8515 32H4.52503C4.21869 31.985 3.92505 31.8701 3.68708 31.6719C3.44911 31.4738 3.27929 31.2029 3.20246 30.8988L0.344956 18.1109C0.210548 17.5052 0.582857 17.0097 1.17425 17.0097H23.4994C23.8056 17.0249 24.0992 17.1399 24.3371 17.338C24.575 17.5361 24.7449 17.8069 24.8219 18.1109L27.6794 30.8988C27.8165 31.5045 27.4429 32 26.8515 32Z" fill="#198D99"/>
<path opacity="0.4" d="M26.8515 32H4.52503C4.21869 31.985 3.92505 31.8701 3.68708 31.6719C3.44911 31.4738 3.27929 31.2029 3.20246 30.8988L0.344956 18.1109C0.210548 17.5052 0.582857 17.0097 1.17425 17.0097H23.4994C23.8056 17.0249 24.0992 17.1399 24.3371 17.338C24.575 17.5361 24.7449 17.8069 24.8219 18.1109L27.6794 30.8988C27.8165 31.5045 27.4429 32 26.8515 32Z" fill="#111516"/>
<path d="M27.0651 32H4.74C4.43359 31.9852 4.13985 31.8704 3.90184 31.6722C3.66383 31.474 3.49406 31.203 3.41743 30.8988L0.559922 18.1095C0.425514 17.5038 0.797823 17.0083 1.38922 17.0083H23.7143C24.0206 17.0235 24.3141 17.1385 24.5521 17.3366C24.79 17.5347 24.9599 17.8055 25.0369 18.1095L27.8944 30.8974C28.0301 31.5044 27.6565 32 27.0651 32Z" fill="#198D99"/>
<path opacity="0.2" d="M3.55859 25.6171C3.43766 25.6112 3.32176 25.5658 3.22789 25.4875C3.13402 25.4093 3.06715 25.3022 3.03709 25.1821L1.51291 18.3559C1.49849 18.3051 1.496 18.2516 1.50562 18.1996C1.51525 18.1476 1.53672 18.0987 1.56829 18.0569C1.59986 18.015 1.64064 17.9814 1.68731 17.9587C1.73397 17.9361 1.7852 17.925 1.83683 17.9265H23.674C23.795 17.9321 23.911 17.9774 24.0049 18.0557C24.0988 18.1341 24.1657 18.2412 24.1955 18.3614L25.7211 25.1821C25.7363 25.2336 25.7393 25.288 25.7299 25.3409C25.7204 25.3938 25.6987 25.4436 25.6666 25.4862C25.6345 25.5288 25.5929 25.5629 25.5454 25.5856C25.4978 25.6084 25.4456 25.6192 25.3931 25.6171H3.55859Z" fill="#111516"/>
<path opacity="0.2" d="M12.5559 30.9828C12.4853 30.9793 12.4177 30.9528 12.3628 30.9073C12.308 30.8617 12.2687 30.7994 12.2508 30.7295L11.3624 26.7527C11.3536 26.7227 11.3519 26.6911 11.3575 26.6603C11.363 26.6296 11.3756 26.6006 11.3943 26.5759C11.4129 26.5511 11.4371 26.5313 11.4647 26.518C11.4924 26.5047 11.5227 26.4983 11.5532 26.4994H17.7924C17.8635 26.5021 17.9318 26.5282 17.9873 26.5738C18.0427 26.6195 18.0823 26.6822 18.1002 26.7527L18.99 30.7295C18.9988 30.7594 19.0004 30.7911 18.9949 30.8218C18.9893 30.8526 18.9767 30.8815 18.958 30.9063C18.9394 30.9311 18.9152 30.9509 18.8876 30.9642C18.86 30.9775 18.8296 30.9839 18.7991 30.9828H12.5559Z" fill="#111516"/>
<path d="M27.6739 22.0602L28.346 3.92179C28.3507 3.80829 28.333 3.69498 28.2939 3.58864C28.2549 3.48229 28.1953 3.3851 28.1188 3.30286C28.0423 3.22063 27.9503 3.15504 27.8485 3.11001C27.7467 3.06499 27.637 3.04145 27.5261 3.04082L16.2358 2.94308C16.0075 2.94318 15.7879 3.03332 15.6228 3.1948C15.4576 3.35627 15.3594 3.57669 15.3487 3.81029L14.6767 21.9473C14.6718 22.061 14.6894 22.1744 14.7283 22.2809C14.7673 22.3874 14.8268 22.4848 14.9033 22.5672C14.9799 22.6496 15.0719 22.7153 15.1738 22.7604C15.2758 22.8055 15.3855 22.8291 15.4966 22.8297L26.7868 22.9274C27.0151 22.927 27.2344 22.8367 27.3995 22.6753C27.5647 22.5139 27.6629 22.2937 27.6739 22.0602Z" fill="#198D99"/>
<path opacity="0.4" d="M27.6739 22.0602L28.346 3.92179C28.3507 3.80829 28.333 3.69498 28.2939 3.58864C28.2549 3.48229 28.1953 3.3851 28.1188 3.30286C28.0423 3.22063 27.9503 3.15504 27.8485 3.11001C27.7467 3.06499 27.637 3.04145 27.5261 3.04082L16.2358 2.94308C16.0075 2.94318 15.7879 3.03332 15.6228 3.1948C15.4576 3.35627 15.3594 3.57669 15.3487 3.81029L14.6767 21.9473C14.6718 22.061 14.6894 22.1744 14.7283 22.2809C14.7673 22.3874 14.8268 22.4848 14.9033 22.5672C14.9799 22.6496 15.0719 22.7153 15.1738 22.7604C15.2758 22.8055 15.3855 22.8291 15.4966 22.8297L26.7868 22.9274C27.0151 22.927 27.2344 22.8367 27.3995 22.6753C27.5647 22.5139 27.6629 22.2937 27.6739 22.0602Z" fill="#111516"/>
<path d="M27.9226 22.0588L28.6013 3.92035C28.6058 3.80678 28.588 3.69344 28.5488 3.58709C28.5096 3.48074 28.4499 3.38356 28.3733 3.30135C28.2967 3.21913 28.2046 3.15357 28.1027 3.10856C28.0008 3.06355 27.8911 3.04002 27.7801 3.03937L16.4872 2.93889C16.2588 2.93899 16.0393 3.02912 15.8741 3.1906C15.7089 3.35208 15.6108 3.57249 15.6001 3.8061L14.928 21.9431C14.9232 22.0568 14.9407 22.1702 14.9797 22.2767C15.0186 22.3832 15.0781 22.4806 15.1547 22.563C15.2312 22.6454 15.3232 22.7111 15.4252 22.7562C15.5271 22.8013 15.6369 22.8249 15.7479 22.8255L27.0382 22.9232C27.2656 22.9225 27.4841 22.8324 27.6486 22.6716C27.8132 22.5107 27.9112 22.2914 27.9226 22.0588Z" fill="#198D99"/>
<path opacity="0.9" d="M27.8823 4.11307C27.8841 4.06829 27.877 4.0236 27.8616 3.98168C27.8461 3.93975 27.8226 3.90145 27.7923 3.86906C27.7621 3.83668 27.7258 3.81087 27.6856 3.79319C27.6454 3.77552 27.6021 3.76633 27.5583 3.76618L16.6565 3.6712C16.5665 3.67146 16.4799 3.70719 16.4149 3.771C16.3498 3.83481 16.3112 3.9218 16.3071 4.01396L15.6431 21.7532C15.6413 21.798 15.6483 21.8428 15.6638 21.8848C15.6792 21.9268 15.7027 21.9652 15.7329 21.9977C15.7632 22.0302 15.7995 22.0561 15.8397 22.0739C15.8799 22.0918 15.9232 22.1011 15.967 22.1014L26.8688 22.1951C26.9588 22.1952 27.0453 22.1597 27.1104 22.0961C27.1755 22.0325 27.2141 21.9457 27.2183 21.8537L27.8823 4.11307Z" fill="#FEFEFE"/>
<path opacity="0.3" d="M25.8164 16.0503C26.4713 15.2041 26.8532 14.1704 26.9091 13.0921C26.9651 12.0425 26.6817 11.0033 26.1027 10.1354V10.1216C26.0933 10.1059 26.082 10.0916 26.0691 10.0789C25.6398 9.46204 25.0716 8.9602 24.4128 8.61588C23.7539 8.27156 23.0238 8.0949 22.2841 8.10085C21.5174 8.10706 20.7616 8.28863 20.0721 8.63229C19.3826 8.97594 18.7768 9.47301 18.299 10.0872C18.2888 10.098 18.2794 10.1095 18.2707 10.1216L18.264 10.134C17.6031 10.9777 17.2168 12.0121 17.1592 13.0921C17.1016 14.1428 17.3851 15.1834 17.9656 16.0516C17.9661 16.0557 17.9661 16.0599 17.9656 16.064L17.9777 16.0778C18.4076 16.7038 18.9797 17.2132 19.6447 17.5621C20.3098 17.9111 21.0477 18.089 21.7949 18.0806C22.5604 18.0748 23.315 17.8939 24.0035 17.5512C24.6921 17.2085 25.2972 16.7126 25.7747 16.0998C25.7866 16.0876 25.7978 16.0748 25.8083 16.0613L25.8164 16.0503ZM21.8231 17.4901C21.1269 17.4901 20.5395 16.6546 20.2398 15.4253C20.7965 15.3114 21.3629 15.2542 21.9306 15.2546C22.4948 15.253 23.0577 15.3097 23.6107 15.4239C23.1887 16.6546 22.5207 17.4901 21.8231 17.4901ZM21.9575 14.66C21.3414 14.6585 20.7268 14.7208 20.1229 14.8458C20.0487 14.3642 20.0159 13.8769 20.0247 13.3894H24.014C23.9748 13.8809 23.8952 14.3681 23.7761 14.8458C23.1786 14.7202 22.5701 14.6579 21.9602 14.66H21.9575ZM17.7358 13.3894H19.4441C19.4312 13.9248 19.4662 14.4602 19.5489 14.989C19.1234 15.1111 18.7127 15.282 18.3245 15.4983C17.9497 14.8611 17.7475 14.1332 17.7385 13.3894H17.7358ZM18.557 10.686C18.9273 10.9042 19.3223 11.0752 19.7331 11.1953C19.6007 11.72 19.5139 12.2557 19.4737 12.7962H17.7667C17.8542 12.0358 18.1269 11.3102 18.5597 10.686H18.557ZM22.2438 8.69551C22.9414 8.69551 23.5288 9.52968 23.8285 10.7603C23.2714 10.8748 22.7045 10.932 22.1363 10.931C21.5738 10.9327 21.0127 10.8755 20.4616 10.7603C20.8823 9.52968 21.5489 8.69551 22.2465 8.69551H22.2438ZM22.1094 11.5256C22.7261 11.5264 23.3413 11.4627 23.9454 11.3357C24.019 11.8178 24.0514 12.3055 24.0422 12.7934H20.057C20.0952 12.3015 20.1743 11.8138 20.2936 11.3357C20.8912 11.4633 21.5002 11.527 22.1108 11.5256H22.1094ZM26.3312 12.7962H24.6228C24.6344 12.2604 24.5994 11.7246 24.518 11.1953C24.9437 11.0737 25.3545 10.9029 25.7424 10.686C26.1186 11.3232 26.3223 12.0516 26.3325 12.7962H26.3312ZM24.5933 13.3894H26.2989C26.2102 14.1491 25.9376 14.874 25.5059 15.4983C25.1352 15.2809 24.7403 15.1099 24.3298 14.989C24.4634 14.4647 24.552 13.9295 24.5946 13.3894H24.5933ZM25.4105 10.2083C25.0885 10.3807 24.7503 10.519 24.4011 10.6213C24.272 10.0271 24.0324 9.46394 23.6954 8.96255C24.3651 9.21495 24.9574 9.64483 25.4118 10.2083H25.4105ZM20.7707 8.95843C20.3882 9.45422 20.095 10.0159 19.9051 10.6171C19.5683 10.5163 19.2433 10.3778 18.936 10.2042C19.4408 9.64307 20.0707 9.21562 20.7721 8.95843H20.7707ZM18.6578 15.9787C18.9793 15.8063 19.317 15.668 19.6659 15.5657C19.796 16.1598 20.0359 16.7228 20.3729 17.2244C19.7038 16.9716 19.1124 16.5412 18.6592 15.9773L18.6578 15.9787ZM23.2976 17.2286C23.6793 16.7322 23.9724 16.1707 24.1632 15.5699C24.4997 15.6715 24.8246 15.81 25.1322 15.9828C24.6285 16.5434 23.9993 16.9704 23.2989 17.2272L23.2976 17.2286Z" fill="#198D99"/>
<path opacity="0.6" d="M19.0127 3.69185L17.0759 22.1111L19.6566 22.1331L21.5934 3.71387L19.0127 3.69185Z" fill="#FEFEFE"/>
<path opacity="0.6" d="M22.4737 3.72214L20.5369 22.1414L21.596 22.1496L23.5328 3.7304L22.4737 3.72214Z" fill="#FEFEFE"/>
<path opacity="0.3" d="M21.8797 3.45371C21.9153 3.45371 21.9495 3.43921 21.9747 3.41339C21.9999 3.38758 22.0141 3.35257 22.0141 3.31606C22.0152 3.29839 22.0127 3.28067 22.0069 3.264C22.001 3.24734 21.9919 3.23208 21.98 3.21918C21.9682 3.20627 21.9539 3.19599 21.938 3.18898C21.9221 3.18197 21.905 3.17837 21.8877 3.17841C21.8521 3.17841 21.8179 3.19291 21.7927 3.21872C21.7675 3.24454 21.7533 3.27955 21.7533 3.31606C21.7522 3.33373 21.7547 3.35145 21.7605 3.36812C21.7664 3.38478 21.7755 3.40004 21.7873 3.41294C21.7992 3.42585 21.8135 3.43612 21.8294 3.44313C21.8452 3.45015 21.8624 3.45375 21.8797 3.45371Z" fill="#FEFEFE"/>
<path d="M31.0771 26.9206L31.7558 12.6847C31.7605 12.5711 31.7428 12.4577 31.7038 12.3513C31.6648 12.2449 31.6053 12.1476 31.5288 12.0652C31.4523 11.9829 31.3603 11.9172 31.2585 11.872C31.1566 11.8268 31.0469 11.8031 30.936 11.8023L24.4078 11.7059C24.1796 11.706 23.9603 11.796 23.7951 11.9572C23.63 12.1183 23.5317 12.3384 23.5207 12.5718L22.8486 26.8091C22.8439 26.9226 22.8616 27.036 22.9007 27.1423C22.9397 27.2486 22.9992 27.3458 23.0758 27.4281C23.1523 27.5103 23.2443 27.5759 23.3461 27.6209C23.4479 27.6659 23.5576 27.6895 23.6685 27.6901L30.1967 27.7878C30.4239 27.786 30.6418 27.6951 30.8055 27.5338C30.9692 27.3725 31.0664 27.1531 31.0771 26.9206Z" fill="#198D99"/>
<path opacity="0.4" d="M31.0771 26.9206L31.7558 12.6847C31.7605 12.5711 31.7428 12.4577 31.7038 12.3513C31.6648 12.2449 31.6053 12.1476 31.5288 12.0652C31.4523 11.9829 31.3603 11.9172 31.2585 11.872C31.1566 11.8268 31.0469 11.8031 30.936 11.8023L24.4078 11.7059C24.1796 11.706 23.9603 11.796 23.7951 11.9572C23.63 12.1183 23.5317 12.3384 23.5207 12.5718L22.8486 26.8091C22.8439 26.9226 22.8616 27.036 22.9007 27.1423C22.9397 27.2486 22.9992 27.3458 23.0758 27.4281C23.1523 27.5103 23.2443 27.5759 23.3461 27.6209C23.4479 27.6659 23.5576 27.6895 23.6685 27.6901L30.1967 27.7878C30.4239 27.786 30.6418 27.6951 30.8055 27.5338C30.9692 27.3725 31.0664 27.1531 31.0771 26.9206Z" fill="#111516"/>
<path d="M31.3272 26.9206L31.9992 12.6847C32.0041 12.571 31.9866 12.4576 31.9476 12.3511C31.9087 12.2446 31.8492 12.1472 31.7726 12.0648C31.6961 11.9824 31.6041 11.9167 31.5021 11.8716C31.4002 11.8265 31.2904 11.8029 31.1794 11.8023L24.6512 11.7059C24.4232 11.706 24.204 11.796 24.0391 11.9573C23.8741 12.1185 23.7761 12.3385 23.7654 12.5718L23.0867 26.8091C23.082 26.9226 23.0997 27.036 23.1387 27.1423C23.1777 27.2486 23.2373 27.3458 23.3138 27.4281C23.3904 27.5103 23.4823 27.5759 23.5841 27.6209C23.686 27.6659 23.7956 27.6895 23.9066 27.6901L30.4347 27.7878C30.6639 27.7888 30.8846 27.6992 31.0509 27.5377C31.2172 27.3761 31.3161 27.1551 31.3272 26.9206Z" fill="#198D99"/>
<path opacity="0.9" d="M31.2868 12.8774C31.2884 12.8326 31.2813 12.7879 31.2658 12.746C31.2503 12.7041 31.2267 12.6658 31.1965 12.6333C31.1664 12.6008 31.1301 12.5749 31.09 12.557C31.0499 12.5391 31.0067 12.5296 30.9629 12.5291L24.8205 12.4369C24.7304 12.4371 24.6439 12.4729 24.5788 12.5367C24.5137 12.6005 24.4752 12.6875 24.471 12.7796L23.8097 26.6151C23.8079 26.6599 23.8149 26.7046 23.8304 26.7467C23.8458 26.7887 23.8693 26.827 23.8996 26.8595C23.9298 26.892 23.9661 26.918 24.0063 26.9358C24.0465 26.9536 24.0898 26.963 24.1336 26.9633L30.2734 27.0569C30.3633 27.057 30.4499 27.0216 30.5149 26.958C30.58 26.8944 30.6187 26.8076 30.6228 26.7155L31.2868 12.8774Z" fill="#FEFEFE"/>
<path opacity="0.3" d="M29.8689 21.6596C30.2714 21.1404 30.5063 20.5059 30.541 19.8439C30.5749 19.1994 30.4006 18.5613 30.045 18.0283C30.045 18.0283 30.045 18.0283 30.045 18.0201C30.0395 18.0108 30.0332 18.002 30.0262 17.9939C29.7622 17.6153 29.413 17.3073 29.0083 17.096C28.6036 16.8847 28.1552 16.7762 27.7009 16.7798C27.2304 16.7835 26.7666 16.8949 26.3436 17.1059C25.9205 17.317 25.5489 17.6222 25.256 17.9994L25.2372 18.0201V18.0283C24.8341 18.5471 24.5991 19.1818 24.5652 19.8439C24.5297 20.4891 24.7041 21.1281 25.0611 21.661V21.6678C25.0611 21.6678 25.0611 21.6678 25.0679 21.6761C25.3313 22.0579 25.6812 22.3685 26.0876 22.5814C26.494 22.7943 26.9447 22.9031 27.4012 22.8984C27.8709 22.8948 28.3339 22.7837 28.7564 22.5735C29.179 22.3632 29.5503 22.059 29.8434 21.683C29.8512 21.6754 29.8584 21.6671 29.8649 21.6582L29.8689 21.6596ZM27.4187 22.5433C26.9899 22.5433 26.6297 22.0312 26.4469 21.2755C26.7886 21.2057 27.1361 21.1707 27.4845 21.1709C27.8298 21.1703 28.1743 21.2054 28.5127 21.2755C28.256 22.0244 27.8461 22.5364 27.4187 22.5364V22.5433ZM27.502 20.8061C27.1238 20.8053 26.7464 20.8436 26.3757 20.9204C26.3307 20.6249 26.3109 20.326 26.3165 20.027H28.7627C28.7395 20.3285 28.6909 20.6274 28.6176 20.9204C28.253 20.8414 27.8814 20.8008 27.5087 20.7993L27.502 20.8061ZM24.9106 20.027H25.9603C25.9529 20.3555 25.9745 20.684 26.0248 21.0085C25.7633 21.0833 25.5108 21.1881 25.2722 21.321C25.0406 20.9281 24.9158 20.479 24.9106 20.0201V20.027ZM25.4146 18.3559C25.6422 18.4893 25.8845 18.5942 26.1364 18.6684C26.0553 18.9906 26.0022 19.3195 25.9778 19.6512H24.9281C24.9819 19.1846 25.1492 18.7392 25.4146 18.3559ZM27.6781 17.1336C28.1068 17.1336 28.467 17.6456 28.6512 18.4013C28.3092 18.4718 27.9611 18.5068 27.6122 18.506C27.2669 18.5072 26.9223 18.4722 26.584 18.4013C26.8367 17.6498 27.2507 17.1377 27.6781 17.1377V17.1336ZM27.5947 18.8707C27.973 18.8715 28.3503 18.8333 28.7211 18.7565C28.7661 19.0524 28.7859 19.3518 28.7802 19.6512H26.334C26.3578 19.3493 26.4063 19.05 26.4791 18.7565C26.8461 18.835 27.2199 18.8747 27.5947 18.8749V18.8707ZM30.1861 19.6512H29.1364C29.1438 19.3223 29.1222 18.9934 29.0719 18.6684C29.3335 18.5936 29.586 18.4888 29.8246 18.3559C30.0559 18.7484 30.1807 19.197 30.1861 19.6554V19.6512ZM29.1216 20.0201H30.1713C30.1172 20.4863 29.95 20.9312 29.6848 21.3141C29.4573 21.1807 29.2149 21.0758 28.963 21.0016C29.044 20.6799 29.0971 20.3514 29.1216 20.0201ZM29.6243 18.0669C29.4266 18.1716 29.219 18.2556 29.0047 18.3174C28.9252 17.9524 28.7778 17.6066 28.5705 17.2988C28.9811 17.455 29.3438 17.7201 29.6216 18.0669H29.6243ZM26.7762 17.2988C26.5394 17.6029 26.3573 17.9479 26.2386 18.3174C26.0317 18.2564 25.8321 18.1724 25.6431 18.0669C25.9536 17.7208 26.3415 17.4572 26.7735 17.2988H26.7762ZM25.4792 21.6073C25.6766 21.5028 25.8837 21.4189 26.0974 21.3567C26.1775 21.7215 26.3249 22.0672 26.5316 22.3754C26.1193 22.2203 25.755 21.9551 25.4765 21.6073H25.4792ZM28.3259 22.3754C28.5627 22.0712 28.7448 21.7263 28.8635 21.3567C29.0702 21.4183 29.2698 21.5023 29.459 21.6073C29.147 21.9541 28.7572 22.2177 28.3232 22.3754H28.3259Z" fill="#198D99"/>
<path opacity="0.6" d="M25.9576 12.4534L24.4442 26.9674L26.4684 26.9991L27.9953 12.4837L25.9576 12.4534Z" fill="#FEFEFE"/>
<path opacity="0.6" d="M28.6902 12.4947L27.1633 27.0101L27.9993 27.0225L29.5262 12.5071L28.6902 12.4947Z" fill="#FEFEFE"/>
<path opacity="0.3" d="M25.2734 12.2387C25.3091 12.2387 25.3433 12.2242 25.3685 12.1983C25.3937 12.1725 25.4078 12.1375 25.4078 12.101C25.4079 12.0659 25.3949 12.0321 25.3714 12.0065C25.3479 11.9809 25.3157 11.9655 25.2815 11.9634C25.2459 11.9634 25.2117 11.9779 25.1865 12.0037C25.1613 12.0295 25.1471 12.0645 25.1471 12.101C25.147 12.1361 25.1601 12.17 25.1836 12.1955C25.2071 12.2211 25.2392 12.2366 25.2734 12.2387Z" fill="#FEFEFE"/>
</svg>
