<svg width="36" height="36" viewBox="0 0 36 36" fill="none" xmlns="http://www.w3.org/2000/svg">
<path d="M34.2562 34.9384H8.21028C8.12912 34.9391 8.04871 34.921 7.97413 34.8852C7.89956 34.8494 7.83244 34.7967 7.77701 34.7305C7.72158 34.6643 7.67905 34.586 7.6521 34.5005C7.62516 34.415 7.61438 34.3242 7.62045 34.2338L8.69312 15.2256C8.70671 15.0362 8.78289 14.8591 8.90685 14.7289C9.03082 14.5987 9.19372 14.5246 9.36389 14.521H35.4085C35.4896 14.5203 35.57 14.5384 35.6446 14.5742C35.7192 14.61 35.7863 14.6627 35.8417 14.7289C35.8972 14.7951 35.9397 14.8734 35.9666 14.9589C35.9936 15.0444 36.0044 15.1352 35.9983 15.2256L34.9256 34.2338C34.9121 34.423 34.8361 34.5998 34.7124 34.73C34.5887 34.8602 34.4262 34.9345 34.2562 34.9384Z" fill="#111516"/>
<path opacity="0.6" d="M34.2562 34.9384H8.21028C8.12912 34.9391 8.04871 34.921 7.97413 34.8852C7.89956 34.8494 7.83244 34.7967 7.77701 34.7305C7.72158 34.6643 7.67905 34.586 7.6521 34.5005C7.62516 34.415 7.61438 34.3242 7.62045 34.2338L8.69312 15.2256C8.70671 15.0362 8.78289 14.8591 8.90685 14.7289C9.03082 14.5987 9.19372 14.5246 9.36389 14.521H35.4085C35.4896 14.5203 35.57 14.5384 35.6446 14.5742C35.7192 14.61 35.7863 14.6627 35.8417 14.7289C35.8972 14.7951 35.9397 14.8734 35.9666 14.9589C35.9936 15.0444 36.0044 15.1352 35.9983 15.2256L34.9256 34.2338C34.9121 34.423 34.8361 34.5998 34.7124 34.73C34.5887 34.8602 34.4262 34.9345 34.2562 34.9384Z" fill="#111516"/>
<path d="M34.0614 34.9384H8.01686C7.93558 34.9393 7.85502 34.9213 7.78028 34.8856C7.70555 34.85 7.63826 34.7973 7.58268 34.7311C7.5271 34.6648 7.48445 34.5864 7.45742 34.5008C7.43039 34.4152 7.41958 34.3243 7.42566 34.2338L8.49833 15.2256C8.51192 15.0362 8.58809 14.8591 8.71206 14.7289C8.83603 14.5987 8.99893 14.5246 9.16909 14.521H35.2137C35.2949 14.5201 35.3754 14.538 35.4501 14.5737C35.5247 14.6094 35.592 14.6621 35.6474 14.7284C35.7029 14.7946 35.7454 14.8731 35.7723 14.9587C35.7992 15.0443 35.8098 15.1352 35.8035 15.2256L34.7308 34.2338C34.7173 34.423 34.6413 34.5998 34.5176 34.73C34.3939 34.8602 34.2314 34.9345 34.0614 34.9384Z" fill="#111516"/>
<path d="M34.0287 35.1804H3.03771C2.89504 35.179 2.75492 35.2227 2.63355 35.3065C2.51218 35.3902 2.41452 35.5106 2.35186 35.6538C2.33598 35.6909 2.32886 35.732 2.33118 35.7731C2.33349 35.8142 2.34515 35.854 2.36507 35.8887C2.38498 35.9233 2.41249 35.9517 2.44498 35.9712C2.47748 35.9907 2.51388 36.0006 2.55076 36H34.5087C34.5456 36.0006 34.582 35.9907 34.6145 35.9712C34.647 35.9517 34.6745 35.9233 34.6944 35.8887C34.7144 35.854 34.726 35.8142 34.7283 35.7731C34.7306 35.732 34.7235 35.6909 34.7076 35.6538C34.6458 35.5116 34.5492 35.3917 34.4291 35.308C34.309 35.2243 34.1702 35.1801 34.0287 35.1804Z" fill="#111516"/>
<path opacity="0.6" d="M34.0284 35.1805H29.6211C29.4795 35.1799 29.3406 35.2241 29.2205 35.3078C29.1004 35.3915 29.0039 35.5115 28.9421 35.6538C28.9263 35.6908 28.9192 35.7318 28.9214 35.7728C28.9237 35.8137 28.9352 35.8534 28.955 35.888C28.9747 35.9226 29.002 35.9511 29.0343 35.9707C29.0667 35.9902 29.1029 36.0003 29.1396 36H34.5085C34.5454 36.0006 34.5818 35.9907 34.6143 35.9712C34.6468 35.9517 34.6743 35.9233 34.6942 35.8887C34.7141 35.854 34.7258 35.8142 34.7281 35.7731C34.7304 35.732 34.7233 35.691 34.7074 35.6538C34.6455 35.5116 34.549 35.3918 34.4289 35.308C34.3088 35.2243 34.17 35.1801 34.0284 35.1805Z" fill="#111516"/>
<path d="M31.2961 35.7778H30.1576C30.1313 35.7774 30.1062 35.7655 30.0877 35.7446C30.0692 35.7236 30.0588 35.6954 30.0588 35.666C30.0588 35.6366 30.0692 35.6084 30.0877 35.5875C30.1062 35.5666 30.1313 35.5546 30.1576 35.5542H31.2961C31.3093 35.5542 31.3223 35.5571 31.3344 35.5627C31.3466 35.5683 31.3576 35.5766 31.3669 35.587C31.3762 35.5973 31.3836 35.6097 31.3886 35.6232C31.3937 35.6368 31.3963 35.6513 31.3963 35.666C31.3963 35.6807 31.3937 35.6953 31.3886 35.7088C31.3836 35.7224 31.3762 35.7347 31.3669 35.7451C31.3576 35.7555 31.3466 35.7637 31.3344 35.7693C31.3223 35.775 31.3093 35.7778 31.2961 35.7778Z" fill="#198D99"/>
<path opacity="0.7" d="M16.6559 35.7778H15.5187C15.4922 35.7778 15.4667 35.7661 15.4479 35.7451C15.4291 35.7241 15.4186 35.6957 15.4186 35.666C15.4186 35.6513 15.4212 35.6368 15.4262 35.6232C15.4312 35.6097 15.4386 35.5973 15.4479 35.587C15.4572 35.5766 15.4682 35.5683 15.4804 35.5627C15.4925 35.5571 15.5056 35.5542 15.5187 35.5542H16.6559C16.669 35.5542 16.682 35.5571 16.6942 35.5627C16.7063 35.5683 16.7174 35.5766 16.7267 35.587C16.736 35.5973 16.7433 35.6097 16.7484 35.6232C16.7534 35.6368 16.756 35.6513 16.756 35.666C16.756 35.6957 16.7454 35.7241 16.7267 35.7451C16.7079 35.7661 16.6824 35.7778 16.6559 35.7778Z" fill="#FEFEFE"/>
<path d="M32.4743 35.5542H31.7295C31.684 35.5542 31.6472 35.5953 31.6472 35.6461V35.6859C31.6472 35.7367 31.684 35.7778 31.7295 35.7778H32.4743C32.5198 35.7778 32.5566 35.7367 32.5566 35.6859V35.6461C32.5566 35.5953 32.5198 35.5542 32.4743 35.5542Z" fill="#198D99"/>
<path d="M8.01274 33.5476L9.00859 15.9119C9.01372 15.8383 9.04331 15.7695 9.09153 15.7191C9.13976 15.6686 9.20314 15.6402 9.26922 15.6392H34.9873C35.0188 15.6387 35.0501 15.6455 35.0791 15.6593C35.1081 15.673 35.1343 15.6933 35.1558 15.719C35.1774 15.7447 35.1939 15.7751 35.2044 15.8083C35.2148 15.8415 35.2189 15.8768 35.2164 15.9119L34.2219 33.5476C34.2165 33.6213 34.1866 33.69 34.1381 33.7405C34.0897 33.7909 34.0261 33.8193 33.9599 33.8202H8.24318C8.21167 33.8205 8.18045 33.8135 8.15146 33.7997C8.12247 33.7859 8.09635 33.7656 8.07472 33.74C8.05309 33.7144 8.03642 33.6841 8.02576 33.651C8.01509 33.6179 8.01066 33.5827 8.01274 33.5476Z" fill="#FEFEFE"/>
<path opacity="0.1" d="M22.6434 15.0954L14.0771 33.2779H7.75767C7.72598 33.2785 7.69453 33.2716 7.66535 33.2578C7.63616 33.244 7.60988 33.2235 7.58819 33.1977C7.5665 33.1719 7.54987 33.1413 7.53937 33.1079C7.52887 33.0745 7.52474 33.039 7.52722 33.0038L8.52308 15.3696C8.52819 15.2959 8.55773 15.227 8.60592 15.1763C8.65411 15.1255 8.7175 15.0967 8.7837 15.0954H22.6434Z" fill="#198D99"/>
<path opacity="0.1" d="M30.1452 15.0954L21.5789 33.2779H19.5817L28.148 15.0954H30.1452Z" fill="#198D99"/>
<path opacity="0.1" d="M34.7308 15.3696L33.735 33.0038C33.7301 33.0776 33.7007 33.1467 33.6524 33.1975C33.6042 33.2483 33.5406 33.277 33.4743 33.2779H23.7352L32.3015 15.0954H34.4963C34.5282 15.0945 34.56 15.101 34.5896 15.1146C34.6192 15.1282 34.6459 15.1486 34.668 15.1744C34.6901 15.2003 34.7071 15.231 34.7179 15.2646C34.7287 15.2982 34.7331 15.334 34.7308 15.3696Z" fill="#198D99"/>
<path opacity="0.4" d="M22.3429 15.1138C22.3392 15.1694 22.317 15.2214 22.2807 15.2596C22.2444 15.2979 22.1967 15.3196 22.1468 15.3206C22.1229 15.3209 22.0993 15.3157 22.0774 15.3052C22.0555 15.2947 22.0358 15.2793 22.0195 15.2598C22.0032 15.2403 21.9908 15.2173 21.9829 15.1922C21.9751 15.167 21.972 15.1404 21.9739 15.1138C21.9774 15.0581 21.9995 15.0059 22.0358 14.9676C22.0722 14.9293 22.1201 14.9077 22.1701 14.907C22.1939 14.9067 22.2176 14.912 22.2395 14.9225C22.2614 14.9329 22.2811 14.9484 22.2974 14.9678C22.3136 14.9873 22.3261 15.0103 22.3339 15.0355C22.3418 15.0606 22.3448 15.0873 22.3429 15.1138Z" fill="#FEFEFE"/>
<path d="M18.0935 10.8845C17.3432 11.8434 16.9097 14.7829 17.4652 16.2289C18.0208 17.675 11.5751 19.1225 16.8932 21.4723C22.2113 23.8221 26.465 21.097 24.9259 18.663C23.3869 16.2289 25.0919 12.1758 23.3101 11.1571C21.6997 10.2289 19.5969 8.96206 18.0935 10.8845Z" fill="#111516"/>
<path d="M16.5037 22.7207C16.2225 23.793 15.9234 24.8653 15.6134 25.9375C15.3034 27.0098 14.9811 28.0698 14.6395 29.1344L14.5092 29.5357L14.4434 29.7364L14.4228 29.7962L14.3899 29.8865C14.3693 29.9447 14.3377 30.0075 14.3103 30.0673C14.1762 30.3408 13.9761 30.5669 13.7328 30.7198C13.5119 30.8538 13.2654 30.9263 13.014 30.9312C12.6616 30.9331 12.3123 30.8566 11.9866 30.706C11.72 30.5852 11.4619 30.4424 11.2144 30.2787C10.315 29.6611 9.49067 28.9166 8.76175 28.0637L9.35295 27.2855C9.55185 27.428 9.76447 27.5796 9.97022 27.7221C10.176 27.8645 10.3913 28.0024 10.5998 28.1387C11.0084 28.4057 11.4302 28.6466 11.8632 28.8602C12.0605 28.9574 12.2641 29.0378 12.4722 29.1007C12.6161 29.154 12.7683 29.1738 12.9194 29.1589C12.9578 29.1589 12.9509 29.1344 12.9194 29.1482C12.8878 29.162 12.8535 29.2018 12.8522 29.1972C12.8508 29.1926 12.8522 29.1972 12.8522 29.188C12.8528 29.185 12.8528 29.1819 12.8522 29.1788L12.8632 29.1405L12.9153 28.9429L13.0209 28.5447L13.859 25.3279C14.1443 24.2556 14.4379 23.1833 14.7396 22.1111L16.5037 22.7207Z" fill="#B65B52"/>
<path d="M9.31044 27.261L7.71652 26.6023L8.34888 28.4834C8.34888 28.4834 9.47368 28.6642 9.90988 28.0039L9.55461 27.4724C9.49303 27.3773 9.40828 27.3039 9.31044 27.261Z" fill="#B55B52"/>
<path d="M6.31052 27.1492L6.91681 28.6917L8.35573 28.4803L7.722 26.5993L6.31052 27.1492Z" fill="#B55B52"/>
<path d="M15.3404 19.9466C14.6107 20.1534 14.1059 23.5035 14.1059 23.5035L16.1154 25.0353C16.1154 25.0353 18.0358 21.6561 17.4803 20.7616C16.8905 19.8226 16.4035 19.6449 15.3404 19.9466Z" fill="#198D99"/>
<path opacity="0.5" d="M15.3404 19.9466C14.6107 20.1534 14.1059 23.5035 14.1059 23.5035L16.1154 25.0353C16.1154 25.0353 18.0358 21.6561 17.4803 20.7616C16.8905 19.8226 16.4035 19.6449 15.3404 19.9466Z" fill="#FEFEFE"/>
<path opacity="0.2" d="M15.2747 21.1644L16.8343 21.5673L16.9838 23.2722C16.7196 23.8741 16.4279 24.4605 16.11 25.0292L14.8906 24.1101C14.9441 23.3212 15.0758 21.7006 15.2747 21.1644Z" fill="#111516"/>
<path d="M15.3406 19.9466C15.3406 19.9466 14.497 20.2775 16.1855 31.8671H23.3678C23.2471 28.6029 23.2443 26.5885 24.6407 19.89C23.6354 19.6578 22.6163 19.5078 21.5914 19.4411C20.3829 19.3753 19.3967 19.3324 18.3295 19.4411C16.929 19.5836 15.3406 19.9466 15.3406 19.9466Z" fill="#198D99"/>
<path opacity="0.5" d="M15.3406 19.9466C15.3406 19.9466 14.497 20.2775 16.1855 31.8671H23.3678C23.2471 28.6029 23.2443 26.5885 24.6407 19.89C23.6354 19.6578 22.6163 19.5078 21.5914 19.4411C20.3829 19.3753 19.3967 19.3324 18.3295 19.4411C16.929 19.5836 15.3406 19.9466 15.3406 19.9466Z" fill="#FEFEFE"/>
<path opacity="0.2" d="M22.9506 22.9995L23.8779 23.8819C23.6804 25.0537 23.5473 26.0264 23.4664 26.898C23.2895 26.0279 22.8478 23.6659 22.9506 22.9995Z" fill="#111516"/>
<path d="M21.2676 15.339C21.0618 16.5108 20.8561 18.6584 21.5913 19.4412C21.5913 19.4412 20.9055 21.1966 19.088 21.1966C17.2704 21.1966 18.3294 19.4412 18.3294 19.4412C19.4995 19.1348 19.4693 18.159 19.2663 17.2492L21.2676 15.339Z" fill="#B55B52"/>
<path d="M21.3581 19.003C21.1853 19.3937 20.6284 20.2867 19.0729 20.6053C19.0296 20.6142 18.985 20.6043 18.948 20.5777C18.6572 20.351 18.4762 19.8716 18.6037 19.3155C18.6122 19.2814 18.6119 19.2452 18.603 19.2112C18.594 19.1772 18.5767 19.1467 18.553 19.1231C18.5293 19.0996 18.5002 19.0838 18.4689 19.0778C18.4376 19.0717 18.4055 19.0755 18.376 19.0888C18.2566 19.1447 18.1418 19.2123 18.0331 19.291C18.0092 19.3087 17.9899 19.333 17.9769 19.3615C17.863 19.6004 17.4021 20.7707 18.793 21.4922C18.8152 21.5028 18.8389 21.509 18.863 21.5106C19.686 21.529 21.1249 21.3482 22.0344 19.5193C22.0506 19.4862 22.0578 19.4486 22.0552 19.411C22.0525 19.3735 22.04 19.3376 22.0193 19.3079C21.8971 19.1585 21.7551 19.0308 21.5982 18.9295C21.5784 18.9153 21.5562 18.906 21.533 18.902C21.5098 18.8981 21.4861 18.8996 21.4635 18.9065C21.4408 18.9135 21.4198 18.9256 21.4016 18.9423C21.3835 18.9589 21.3687 18.9796 21.3581 19.003Z" fill="#FEFEFE"/>
<path d="M21.7394 23.8252L19.8876 23.7654C19.8683 23.7656 19.8491 23.7611 19.8314 23.7524C19.8137 23.7437 19.7978 23.7308 19.7849 23.7148C19.7719 23.6987 19.7622 23.6798 19.7562 23.6592C19.7503 23.6386 19.7483 23.6169 19.7505 23.5954L19.7683 23.3396C19.7737 23.2966 19.7929 23.2572 19.8225 23.229C19.8521 23.2008 19.8899 23.1856 19.9288 23.1864L21.7806 23.2462C21.8001 23.246 21.8194 23.2505 21.8372 23.2593C21.855 23.2681 21.8709 23.2811 21.8839 23.2973C21.8969 23.3135 21.9066 23.3327 21.9124 23.3534C21.9183 23.3742 21.9201 23.3961 21.9178 23.4177L21.8999 23.672C21.8946 23.715 21.8753 23.7544 21.8457 23.7826C21.8161 23.8108 21.7783 23.826 21.7394 23.8252Z" fill="#FEFEFE"/>
<path opacity="0.2" d="M20.4514 16.1187L19.2662 17.2476C19.3171 17.4593 19.351 17.6756 19.3677 17.894C19.8136 17.822 20.4281 17.2736 20.4761 16.7513C20.5023 16.5405 20.494 16.3261 20.4514 16.1187Z" fill="#111516"/>
<path d="M22.6503 13.1225C22.3198 15.0479 22.2169 15.8705 21.2238 16.7391C19.73 18.0472 17.6848 17.171 17.4955 15.1751C17.324 13.3783 17.8933 10.5322 19.6902 10.0052C20.084 9.88839 20.4979 9.88571 20.8929 9.99747C21.2879 10.1092 21.6507 10.3317 21.9471 10.6439C22.2436 10.956 22.4637 11.3475 22.5868 11.7813C22.7099 12.215 22.7317 12.6766 22.6503 13.1225Z" fill="#B55B52"/>
<path d="M21.6694 11.6979C21.4555 12.9034 21.4047 14.5011 22.3937 14.5011C23.3827 14.5011 24.1577 12.6215 23.3045 11.1495C22.4513 9.67742 21.7943 10.9871 21.6694 11.6979Z" fill="#111516"/>
<path d="M23.3786 11.8465C23.3786 13.1577 21.8999 12.5097 21.2456 11.9445C20.5913 11.3793 20.5598 11.4405 19.3472 11.439C18.1346 11.4375 17.8918 11.344 17.5338 10.6976C17.1758 10.0512 17.2087 9.62535 18.0153 9.76168C18.8218 9.89801 18.1442 8.97893 18.745 8.46884C19.3458 7.95875 20.0577 8.08742 20.8794 9.25159C21.701 10.4158 23.3786 9.5748 23.3786 11.8465Z" fill="#111516"/>
<path d="M22.9444 14.8357C23.1 14.243 22.9474 13.6714 22.6035 13.5588C22.2597 13.4462 21.8548 13.8354 21.6992 14.428C21.5436 15.0206 21.6962 15.5923 22.0401 15.7049C22.384 15.8175 22.7888 15.4283 22.9444 14.8357Z" fill="#FEFEFE"/>
<path d="M20.199 16.3178C19.8806 16.3177 19.5655 16.2453 19.2731 16.1049C19.2668 16.102 19.2611 16.0978 19.2563 16.0925C19.2515 16.0871 19.2477 16.0808 19.2452 16.0738C19.2426 16.0668 19.2414 16.0593 19.2414 16.0518C19.2415 16.0442 19.2429 16.0367 19.2456 16.0298C19.2513 16.0158 19.2616 16.0049 19.2744 15.9992C19.2872 15.9935 19.3014 15.9935 19.3142 15.9992C19.5898 16.1313 19.8864 16.2003 20.1863 16.2021C20.4863 16.204 20.7835 16.1386 21.0604 16.0099C21.3297 15.8868 21.5743 15.7049 21.7797 15.4747C21.9851 15.2445 22.1472 14.9708 22.2565 14.6696C22.668 13.3538 23.0878 11.7117 22.6022 10.6869C22.5045 10.4874 22.3693 10.3139 22.206 10.1783C22.0426 10.0427 21.8549 9.94808 21.6557 9.90107C21.6425 9.89711 21.6312 9.8875 21.6243 9.87431C21.6173 9.86113 21.6153 9.84543 21.6187 9.8306C21.6222 9.81584 21.6308 9.80322 21.6426 9.79548C21.6544 9.78774 21.6685 9.7855 21.6818 9.78925C21.8946 9.84038 22.095 9.94209 22.2694 10.0875C22.4439 10.2329 22.5883 10.4185 22.6927 10.6317C23.1975 11.6902 22.7764 13.3645 22.3525 14.7048C22.2376 15.0211 22.067 15.3085 21.851 15.55C21.6349 15.7915 21.3778 15.9823 21.0947 16.111C20.8109 16.2441 20.5067 16.3144 20.199 16.3178Z" fill="#FEFEFE"/>
<path opacity="0.6" d="M22.8945 14.8411C22.7724 15.3007 22.4926 15.6239 22.269 15.5519C22.0454 15.4799 21.9631 15.0418 22.0852 14.5761C22.2073 14.1105 22.4871 13.7919 22.7107 13.8654C22.9343 13.9389 23.0166 14.3755 22.8945 14.8411Z" fill="#198D99"/>
<path d="M19.4155 15.8514L18.8781 15.7357C18.7837 15.7153 18.6923 15.7843 18.6741 15.8898L18.6681 15.9244C18.6499 16.0299 18.7117 16.1319 18.8062 16.1523L19.3436 16.2681C19.438 16.2884 19.5294 16.2194 19.5476 16.1139L19.5536 16.0793C19.5718 15.9738 19.51 15.8718 19.4155 15.8514Z" fill="#FEFEFE"/>
<path d="M18.7133 13.2833C18.7133 13.2833 18.3951 13.9282 18.0933 14.2177C18.2565 14.4398 18.5857 14.3969 18.5857 14.3969L18.7133 13.2833Z" fill="#A02724"/>
<path d="M19.0166 15.221H19.029C19.34 15.2484 19.6487 15.1434 19.8932 14.9269C19.8982 14.9212 19.901 14.9135 19.901 14.9055C19.901 14.8975 19.8982 14.8898 19.8932 14.884C19.8907 14.8813 19.8879 14.8791 19.8847 14.8776C19.8815 14.8762 19.8781 14.8754 19.8746 14.8754C19.8712 14.8754 19.8678 14.8762 19.8646 14.8776C19.8614 14.8791 19.8585 14.8813 19.8561 14.884C19.6227 15.0889 19.3292 15.1889 19.0331 15.1644C19.0296 15.1637 19.026 15.1639 19.0225 15.1649C19.019 15.1658 19.0158 15.1676 19.0129 15.17C19.0101 15.1725 19.0078 15.1756 19.006 15.1791C19.0043 15.1826 19.0032 15.1864 19.0029 15.1904C19.0022 15.1964 19.0031 15.2026 19.0056 15.2081C19.008 15.2135 19.0119 15.218 19.0166 15.221Z" fill="#111516"/>
<path d="M20.5858 12.525C20.5936 12.5299 20.6023 12.5324 20.6112 12.5324C20.6201 12.5324 20.6288 12.5299 20.6366 12.525C20.6483 12.5163 20.6566 12.5028 20.6597 12.4874C20.6627 12.472 20.6603 12.4558 20.653 12.4423C20.5874 12.3197 20.4966 12.2162 20.3881 12.1405C20.2795 12.0649 20.1564 12.0192 20.0289 12.0073C20.0146 12.0073 20.0008 12.0135 19.9906 12.0247C19.9803 12.0359 19.9744 12.0511 19.974 12.067C19.974 12.0826 19.9795 12.0976 19.9892 12.1087C19.999 12.1199 20.0122 12.1264 20.0262 12.1268C20.136 12.1385 20.2419 12.179 20.3351 12.245C20.4283 12.311 20.5062 12.4007 20.5625 12.5067C20.5686 12.515 20.5767 12.5214 20.5858 12.525Z" fill="#111516"/>
<path d="M19.7997 13.3093C19.7764 13.4625 19.6818 13.5805 19.5885 13.5636C19.4952 13.5468 19.4417 13.4104 19.465 13.245C19.4884 13.0796 19.5844 12.9739 19.6763 12.9907C19.7682 13.0076 19.8244 13.1516 19.7997 13.3093Z" fill="#111516"/>
<path d="M18.2004 13.006C18.1771 13.1592 18.0824 13.2772 17.9892 13.2603C17.8959 13.2435 17.8424 13.0995 17.8657 12.9417C17.889 12.7839 17.985 12.669 18.077 12.6874C18.1689 12.7058 18.2251 12.8467 18.2004 13.006Z" fill="#111516"/>
<path d="M18.1169 12.7043L17.7932 12.5296C17.7932 12.5296 17.9221 12.859 18.1169 12.7043Z" fill="#111516"/>
<path d="M19.7162 13.0076L19.3925 12.8345C19.3925 12.8345 19.5215 13.1638 19.7162 13.0076Z" fill="#111516"/>
<path d="M17.6573 11.9384C17.6656 11.9439 17.675 11.9468 17.6847 11.9468C17.6944 11.9468 17.7038 11.9439 17.7121 11.9384C17.7968 11.8589 17.8973 11.8035 18.0053 11.7768C18.1133 11.7502 18.2254 11.753 18.3321 11.7852C18.3456 11.7905 18.3604 11.7896 18.3733 11.7827C18.3861 11.7758 18.396 11.7635 18.4007 11.7484C18.4055 11.7334 18.4046 11.7169 18.3985 11.7025C18.3923 11.6882 18.3813 11.6771 18.3678 11.6718C18.2447 11.6327 18.115 11.6273 17.9896 11.6561C17.8642 11.6849 17.7469 11.747 17.6477 11.8373C17.6419 11.8418 17.6371 11.8476 17.6335 11.8543C17.6299 11.861 17.6275 11.8685 17.6266 11.8763C17.6257 11.8841 17.6263 11.892 17.6282 11.8995C17.6302 11.907 17.6335 11.914 17.6381 11.92C17.6426 11.9282 17.6493 11.9346 17.6573 11.9384Z" fill="#111516"/>
<path d="M15.9124 33.8202C15.9124 33.8202 15.8932 32.7234 16.1868 31.8672H23.3676C23.3676 31.8672 24.0137 33.0313 24.1811 33.8202H15.9124Z" fill="#198D99"/>
<path d="M23.4761 31.3969L23.5323 32.1138C23.5584 32.1705 23.4994 32.2271 23.4158 32.2271H16.1457C16.0812 32.2271 16.0278 32.1919 16.0236 32.1459L15.9578 31.4275C15.9578 31.3785 16.0099 31.3356 16.0812 31.3356H23.3513C23.3751 31.3328 23.3991 31.337 23.421 31.3477C23.4429 31.3585 23.4619 31.3754 23.4761 31.3969Z" fill="#198D99"/>
<path opacity="0.3" d="M23.4761 31.3969L23.5323 32.1138C23.5584 32.1705 23.4994 32.2271 23.4158 32.2271H16.1457C16.0812 32.2271 16.0278 32.1919 16.0236 32.1459L15.9578 31.4275C15.9578 31.3785 16.0099 31.3356 16.0812 31.3356H23.3513C23.3751 31.3328 23.3991 31.337 23.421 31.3477C23.4429 31.3585 23.4619 31.3754 23.4761 31.3969Z" fill="#FEFEFE"/>
<path d="M22.4981 32.3037H22.6929C22.7327 32.3037 22.7615 32.2823 22.7587 32.2547L22.6682 31.3218C22.6682 31.2943 22.6311 31.2728 22.5927 31.2728H22.3938C22.3541 31.2728 22.3253 31.2943 22.328 31.3218L22.4185 32.2547C22.4254 32.2823 22.4597 32.3037 22.4981 32.3037Z" fill="#198D99"/>
<path d="M16.697 32.3037H16.8918C16.9302 32.3037 16.9604 32.2823 16.9576 32.2547L16.8657 31.3218C16.8657 31.2943 16.8301 31.2728 16.7903 31.2728H16.5955C16.5571 31.2728 16.5269 31.2943 16.5297 31.3218L16.6216 32.2547C16.6243 32.2823 16.6586 32.3037 16.697 32.3037Z" fill="#198D99"/>
<path d="M19.5982 32.3037H19.7875C19.8259 32.3037 19.8561 32.2823 19.8534 32.2547L19.7615 31.3218C19.7615 31.2943 19.7244 31.2728 19.686 31.2728H19.4912C19.4528 31.2728 19.4227 31.2943 19.4254 31.3218L19.5173 32.2547C19.5255 32.2823 19.5585 32.3037 19.5982 32.3037Z" fill="#198D99"/>
<path d="M25.2551 22.1601C25.5706 23.3038 25.8737 24.4537 26.1645 25.6097L26.6021 27.3345L26.8202 28.1923L26.8751 28.4037L26.9025 28.5094L26.9094 28.5339L26.8874 28.4956C26.8528 28.4402 26.8101 28.3915 26.7612 28.3516C26.6539 28.2644 26.5262 28.2139 26.3936 28.2061C26.2934 28.2008 26.1936 28.2229 26.1028 28.2705C26.004 28.3302 26.0137 28.344 26.0219 28.3333C26.0451 28.3107 26.0663 28.2855 26.085 28.2582C26.1496 28.168 26.2092 28.0733 26.2633 27.9748C26.384 27.7542 26.5033 27.5061 26.6158 27.2518C26.849 26.7432 27.0589 26.204 27.2715 25.6618C27.4841 25.1195 27.683 24.5711 27.8888 24.0182C28.0945 23.4652 28.2907 22.9091 28.4937 22.3608L29.3702 22.6518C29.1425 23.8466 28.8764 25.02 28.5472 26.1887C28.3853 26.7754 28.2056 27.356 27.9985 27.9442C27.8915 28.2383 27.7777 28.5324 27.6364 28.8372C27.561 29.0021 27.4768 29.1617 27.384 29.3151C27.3263 29.4114 27.2621 29.5025 27.1919 29.5878C27.0806 29.7288 26.9454 29.8439 26.7941 29.9263C26.6432 30.0083 26.4763 30.0473 26.3086 30.0397C26.1097 30.0273 25.9186 29.9489 25.7599 29.8145C25.6587 29.7293 25.5711 29.6258 25.5006 29.5081C25.4561 29.4327 25.4171 29.3533 25.384 29.2707C25.3717 29.237 25.358 29.2018 25.3484 29.1711L25.3223 29.0961L25.2866 28.9873L25.2153 28.7713C25.122 28.4849 25.0274 28.1985 24.941 27.912C24.7654 27.3391 24.5898 26.7678 24.4252 26.1933C24.0887 25.0455 23.775 23.892 23.4842 22.733L25.2551 22.1601Z" fill="#B65B52"/>
<path d="M24.6407 19.89C25.3608 20.1335 26.4623 23.2875 26.4623 23.2875L23.6709 25.5163C23.6709 25.5163 22.4158 22.8203 22.7176 21.7817C23.033 20.7003 23.8204 19.6112 24.6407 19.89Z" fill="#198D99"/>
<path opacity="0.5" d="M24.6407 19.89C25.3608 20.1335 26.4623 23.2875 26.4623 23.2875L23.6709 25.5163C23.6709 25.5163 22.4158 22.8203 22.7176 21.7817C23.033 20.7003 23.8204 19.6112 24.6407 19.89Z" fill="#FEFEFE"/>
<path d="M28.5253 22.7805L28.1425 20.8964L29.7337 21.8338C29.7337 21.8338 29.7529 23.1022 29.111 23.502L28.5253 22.7805Z" fill="#B55B52"/>
<path d="M28.8092 19.4013L29.8243 20.2055L29.7337 21.8338L28.1425 20.8964L28.8092 19.4013Z" fill="#B55B52"/>
<path d="M2.05758 10.0946H13.1684C13.3805 10.0923 13.5908 10.1392 13.7859 10.2322C13.981 10.3253 14.1567 10.4625 14.3018 10.6353C14.447 10.808 14.5585 11.0126 14.6292 11.2359C14.7 11.4592 14.7285 11.6965 14.7129 11.9328L14.4029 17.5484C14.3688 18.0428 14.1708 18.5051 13.8476 18.8451C13.5244 19.185 13.0993 19.3781 12.6554 19.3866H11.3687L11.8941 21.3151L9.38111 19.3866H1.54868C1.33654 19.3889 1.12628 19.3421 0.931182 19.249C0.736087 19.156 0.560403 19.0187 0.415239 18.8459C0.270074 18.6732 0.158586 18.4687 0.0878238 18.2453C0.0170621 18.022 -0.0114341 17.7847 0.00413613 17.5484L0.311398 11.9328C0.345463 11.4387 0.543275 10.9766 0.866182 10.6366C1.18909 10.2967 1.61389 10.1035 2.05758 10.0946Z" fill="#198D99"/>
<path d="M12.1505 13.0357H2.75427C2.71438 13.0355 2.67496 13.026 2.63853 13.0078C2.60209 12.9897 2.56942 12.9633 2.5426 12.9303C2.51578 12.8973 2.49538 12.8585 2.4827 12.8163C2.47003 12.774 2.46535 12.7293 2.46896 12.6849C2.4751 12.592 2.51213 12.5049 2.57278 12.4409C2.63344 12.3768 2.71333 12.3404 2.79679 12.3387H12.1943C12.234 12.3388 12.2733 12.3481 12.3096 12.3658C12.346 12.3836 12.3787 12.4095 12.4057 12.4419C12.4328 12.4744 12.4535 12.5127 12.4667 12.5545C12.4799 12.5963 12.4852 12.6407 12.4824 12.6849C12.4775 12.7796 12.4404 12.8687 12.3787 12.9339C12.317 12.999 12.2354 13.0355 12.1505 13.0357Z" fill="#FEFEFE"/>
<path d="M6.58425 15.0868H2.64197C2.60205 15.0871 2.5625 15.0782 2.52581 15.0606C2.48912 15.0431 2.45608 15.0172 2.42877 14.9847C2.40146 14.9522 2.38047 14.9137 2.36711 14.8717C2.35376 14.8297 2.34833 14.7851 2.35117 14.7406C2.35733 14.6474 2.39456 14.5601 2.4555 14.496C2.51644 14.4319 2.59667 14.3957 2.68038 14.3944H6.62677C6.6668 14.3939 6.7065 14.4026 6.74335 14.4201C6.78021 14.4376 6.81341 14.4634 6.84087 14.4959C6.86833 14.5285 6.88945 14.567 6.90289 14.6091C6.91632 14.6512 6.92179 14.696 6.91894 14.7406C6.91238 14.8347 6.87429 14.9227 6.81225 14.9868C6.75022 15.051 6.6688 15.0867 6.58425 15.0868Z" fill="#FEFEFE"/>
<path d="M9.96266 17.1379H2.52939C2.48947 17.1382 2.44992 17.1293 2.41323 17.1117C2.37654 17.0942 2.3435 17.0683 2.31619 17.0358C2.28888 17.0033 2.26789 16.9648 2.25453 16.9228C2.24118 16.8808 2.23575 16.8362 2.23859 16.7917C2.24445 16.6983 2.28158 16.6109 2.34258 16.5467C2.40359 16.4826 2.484 16.4464 2.5678 16.4455H10.0011C10.041 16.4449 10.0807 16.4537 10.1175 16.4712C10.1543 16.4887 10.1874 16.5145 10.2147 16.5471C10.2421 16.5796 10.2631 16.6182 10.2764 16.6603C10.2896 16.7024 10.2949 16.7472 10.2919 16.7917C10.2857 16.8849 10.2485 16.9722 10.1875 17.0363C10.1266 17.1003 10.0464 17.1366 9.96266 17.1379Z" fill="#FEFEFE"/>
<path d="M9.47989 15.0868H7.92575C7.88583 15.0871 7.84628 15.0782 7.80959 15.0606C7.7729 15.0431 7.73986 15.0172 7.71255 14.9847C7.68524 14.9522 7.66425 14.9137 7.65089 14.8717C7.63754 14.8297 7.63211 14.7851 7.63495 14.7406C7.64142 14.6475 7.67874 14.5604 7.73962 14.4964C7.80049 14.4324 7.88055 14.396 7.96416 14.3944H9.51693C9.55691 14.3939 9.59655 14.4026 9.63334 14.4201C9.67012 14.4376 9.70325 14.4634 9.7306 14.496C9.75796 14.5285 9.77894 14.5671 9.79222 14.6092C9.8055 14.6513 9.81078 14.6961 9.80773 14.7406C9.80158 14.8336 9.76455 14.9206 9.7039 14.9847C9.64325 15.0487 9.56335 15.0851 9.47989 15.0868Z" fill="#FEFEFE"/>
<path d="M17.529 5.93115e-05H11.4716C11.1261 0.00584895 10.7951 0.155691 10.5436 0.420143C10.2921 0.684594 10.1382 1.04453 10.1122 1.42923L9.87626 5.801C9.86451 5.98481 9.88698 6.16935 9.94226 6.34297C9.99754 6.5166 10.0844 6.67556 10.1974 6.80983C10.3105 6.9441 10.4472 7.05077 10.5989 7.12312C10.7507 7.19546 10.9142 7.23191 11.0793 7.23018H12.071L11.4976 8.73135L13.6183 7.23018H17.1326C17.478 7.22439 17.809 7.07454 18.0606 6.81009C18.3121 6.54564 18.466 6.1857 18.4919 5.801L18.732 1.42923C18.7437 1.24542 18.7213 1.06089 18.666 0.887262C18.6107 0.713633 18.5238 0.554674 18.4108 0.420405C18.2978 0.286135 18.1611 0.179465 18.0093 0.107119C17.8576 0.0347738 17.694 -0.00167813 17.529 5.93115e-05Z" fill="#198D99"/>
<g opacity="0.5">
<path opacity="0.5" d="M17.529 5.93115e-05H11.4716C11.1261 0.00584895 10.7951 0.155691 10.5436 0.420143C10.2921 0.684594 10.1382 1.04453 10.1122 1.42923L9.87626 5.801C9.86451 5.98481 9.88698 6.16935 9.94226 6.34297C9.99754 6.5166 10.0844 6.67556 10.1974 6.80983C10.3105 6.9441 10.4472 7.05077 10.5989 7.12312C10.7507 7.19546 10.9142 7.23191 11.0793 7.23018H12.071L11.4976 8.73135L13.6183 7.23018H17.1326C17.478 7.22439 17.809 7.07454 18.0606 6.81009C18.3121 6.54564 18.466 6.1857 18.4919 5.801L18.732 1.42923C18.7437 1.24542 18.7213 1.06089 18.666 0.887262C18.6107 0.713633 18.5238 0.554674 18.4108 0.420405C18.2978 0.286135 18.1611 0.179465 18.0093 0.107119C17.8576 0.0347738 17.694 -0.00167813 17.529 5.93115e-05Z" fill="#FEFEFE"/>
</g>
<path d="M14.6088 4.33046C14.5879 4.42673 14.5387 4.51241 14.4691 4.57379C14.3995 4.63516 14.3134 4.66868 14.2247 4.66898H13.8667C13.8667 4.55563 13.8749 4.4867 13.8763 4.46219C13.8815 4.2414 13.9322 4.02492 14.0244 3.82956C14.154 3.61178 14.3187 3.42273 14.51 3.27198C14.6626 3.1485 14.8066 3.01229 14.9407 2.86452C15.0119 2.77048 15.0542 2.65344 15.0614 2.53059C15.0668 2.44919 15.0554 2.3675 15.0281 2.2918C15.0007 2.21611 14.9582 2.14845 14.9037 2.09402C14.7706 1.96671 14.5985 1.90193 14.4236 1.91327C14.2396 1.90766 14.0598 1.97495 13.9161 2.10321C13.8306 2.18193 13.7606 2.27944 13.7103 2.38966C13.6733 2.47018 13.6157 2.53668 13.545 2.58083C13.4742 2.62498 13.3933 2.6448 13.3125 2.63781C13.2544 2.62977 13.199 2.60549 13.1514 2.56719C13.1039 2.5289 13.0658 2.47785 13.0407 2.41875C13.0155 2.35965 13.0041 2.29442 13.0075 2.22909C13.0109 2.16376 13.029 2.10045 13.0601 2.045C13.1429 1.88988 13.2492 1.75201 13.3742 1.63754C13.6715 1.37069 14.0452 1.23303 14.4263 1.25C14.8749 1.25 15.2233 1.3802 15.4743 1.64214C15.5918 1.75497 15.6843 1.89668 15.7445 2.05615C15.8048 2.21561 15.8311 2.3885 15.8214 2.56122C15.8088 2.75755 15.748 2.94621 15.6458 3.10654C15.4531 3.37148 15.2304 3.60732 14.9833 3.80811C14.8552 3.90794 14.7446 4.03305 14.6568 4.17728C14.6345 4.22559 14.6183 4.27715 14.6088 4.33046ZM13.8255 5.43029V5.38127C13.8327 5.27058 13.8769 5.16695 13.9493 5.09091C14.0217 5.01488 14.1171 4.97199 14.2165 4.97075H14.2658C14.3134 4.96997 14.3605 4.98024 14.4043 5.00091C14.4481 5.02157 14.4876 5.05218 14.5202 5.09078C14.5529 5.12938 14.5779 5.17514 14.5939 5.22515C14.6099 5.27516 14.6163 5.32832 14.6129 5.38127V5.43029C14.6057 5.54113 14.5616 5.64494 14.4892 5.72122C14.4168 5.7975 14.3215 5.84072 14.222 5.84235H14.1781C14.1299 5.84401 14.0821 5.83434 14.0375 5.81397C13.993 5.7936 13.9528 5.76299 13.9195 5.72412C13.8862 5.68525 13.8607 5.639 13.8445 5.58838C13.8283 5.53775 13.8218 5.48389 13.8255 5.43029Z" fill="#FEFEFE"/>
</svg>
